<?xml version="1.0" encoding="utf-8"?>
<!-- Generator: Adobe Illustrator 26.3.1, SVG Export Plug-In . SVG Version: 6.00 Build 0)  -->
<svg version="1.1" id="图层_1" xmlns="http://www.w3.org/2000/svg" xmlns:xlink="http://www.w3.org/1999/xlink" x="0px" y="0px"
	 viewBox="0 0 1500 1500" style="enable-background:new 0 0 1500 1500;" xml:space="preserve">
<style type="text/css">
	.st0{fill:#FFFFFF;}
	.st1{opacity:0.9771;}
	.st2{opacity:0.5;fill:#676767;}
	.st3{opacity:0.5;fill:#6B6B6B;}
	.st4{opacity:0.5;}
	.st5{fill:#6B6B6B;}
	.st6{opacity:0.8;fill:#676767;}
	.st7{fill:#F5F5F5;}
	.st8{fill:#F6F6F6;}
	.st9{fill:#DDDDDD;}
	.st10{opacity:0.49;}
	.st11{fill:url(#SVGID_1_);}
	.st12{fill:url(#SVGID_00000103248670898338462770000009593802554434675365_);}
	.st13{fill:#9E9E9E;}
	.st14{fill:#E9E9E9;}
	.st15{opacity:0.9891;fill:#A6A6A6;}
	.st16{fill:url(#SVGID_00000018940073368262934720000005529499145112418723_);}
	.st17{fill:url(#SVGID_00000018925069662519232080000001772347992470213781_);}
	.st18{fill:url(#SVGID_00000174569906382396398980000016454729920558811565_);}
</style>
<g>
	<polygon class="st0" points="891.5,1319.1 732,1319.1 732,1201.9 677.8,1201.9 677.8,1488 732,1488 732,1363.2 891.5,1363.2 	"/>
	<rect x="20.3" y="1202.2" class="st0" width="54.3" height="286.2"/>
	<polygon class="st0" points="275.8,1202.6 207.2,1202.6 83.9,1332.2 83.9,1399.4 124.8,1357.9 214.9,1488 284.2,1488 158.9,1322.2 
			"/>
	<rect x="1233.7" y="1202.2" class="st0" width="54.4" height="286.2"/>
	<polygon class="st0" points="1426.2,1202.2 1426.2,1319.8 1297.5,1319.8 1297.5,1366.3 1426.2,1366.3 1426.2,1488.4 1480.7,1488.4 
		1480.7,1202.2 	"/>
	<rect x="741.4" y="1201.9" class="st0" width="157.6" height="44.4"/>
	<rect x="741.4" y="1443.6" class="st0" width="158.2" height="44.4"/>
	<path class="st0" d="M1121,1287.9l53.8-10.8c-6.1-26.6-18.2-46.3-36.3-59.1c-17.4-12.4-41.3-19-71.8-20.1v43.4
		c15.2,0.8,27.3,5,36.2,12.4C1112.7,1261.6,1118.7,1273,1121,1287.9z"/>
	<path class="st0" d="M334.3,1255.3v233.1h49.3v-173.9c0-25.5-0.3-45.2-0.9-59.2H334.3z"/>
	<path class="st0" d="M488.1,1398.5c-3.8,17.5-5.8,27.6-6,30.4h-0.7c0-3-1.8-13.3-5.3-30.8c-19.9-65.3-40-130.6-60.2-195.9h-81.7
		v43.7h47.9c0,0,0,0,0,0h1.8c1.6,8.9,6.3,25.7,14.1,50.4c20.4,63.9,40.8,127.8,61.2,191.7h47.5c36.4-119.4,56-184.2,58.8-194.5
		c3.3-12.7,6.6-25.5,9.8-38.2H530C503.1,1347.2,489.1,1394.9,488.1,1398.5z"/>
	<path class="st0" d="M532.7,1246l46.2-0.1c-0.7,21-1.4,41.7-2.1,62.7v179.8h53.5v-286.2h-84.8C541,1217.7,536.7,1232.3,532.7,1246z
		"/>
	<path class="st0" d="M997.9,1386.6l-53.8,11.5c7,32.7,20.6,56.7,40.8,72.1c17.7,13.6,42,21.3,72.6,23v-43.5
		C1023.4,1446.4,1003.5,1425.4,997.9,1386.6z"/>
	<path class="st0" d="M1124.2,1332.4c-19.5-7.9-37.7-13.6-54.6-17.1c-22.5-5.1-37.9-10.6-46.1-16.4c-8-5.8-12-13.8-12-23.8
		c0-9.1,4.1-16.8,12.3-23.1c8.5-6.7,19.7-10.2,33.6-10.7v-43.5c-30.9,0.1-56.1,7.7-75.5,22.7c-18.5,14.5-27.8,32.5-27.8,54.2
		c0,21.5,6,38.3,17.9,50.4c12.4,12.6,33.9,22.5,64.4,29.7c13.4,3,28.3,7.2,44.7,12.6c16.4,5.6,27.9,11.9,34.5,18.9
		c5.9,6.1,8.8,13.9,8.8,23.4c0,11.7-4.5,21.1-13.4,28.3c-9.9,8.2-23.6,12.2-41.2,12.2c-1.1,0-2.1,0-3.1,0v43.3
		c1.6,0,3.2,0.1,4.9,0.1c35.4,0,63-8,82.7-24.1c18.8-15.4,28.2-36,28.2-61.9C1182.6,1373.8,1163.2,1348.7,1124.2,1332.4z"/>
</g>
<g>
	<g>
		<g class="st1">
			<g>
				<polygon class="st0" points="271,280.5 271,830.8 748.1,1106 1230,828.5 1230,280.5 750.5,5.4 				"/>
			</g>
		</g>
		<polygon class="st2" points="1155.7,787.3 1155.7,320.7 1065.9,271.5 1065.9,740.5 		"/>
		<polygon class="st3" points="999.8,701.5 999.8,233.8 912.4,182.3 898.3,645.3 		"/>
		<g class="st4">
			<g>
				<polygon class="st5" points="846.3,613.1 846.3,144.6 756.6,95.5 756.6,563.9 				"/>
			</g>
		</g>
		<polygon class="st6" points="756.5,564.1 435.4,748.2 435.4,848.9 844.6,612.7 		"/>
		<polygon class="st6" points="903.7,645.8 591.3,835.1 591.3,938.1 1000.5,699.5 		"/>
		<g>
			<g>
				<polygon class="st7" points="911.6,180.7 501.1,414.9 590.8,466.4 999,232.2 				"/>
			</g>
		</g>
		<polygon class="st8" points="756.5,91.7 345.7,327.5 435.4,378.9 846.3,143.2 		"/>
		<g>
			<polygon class="st9" points="435.4,847.8 435.4,379.4 345.7,327.9 345.7,796.3 			"/>
		</g>
		<g class="st10">
			<linearGradient id="SVGID_1_" gradientUnits="userSpaceOnUse" x1="546.4117" y1="414.7171" x2="546.4117" y2="934.6448">
				<stop  offset="6.355514e-02" style="stop-color:#FFFFFF"/>
				<stop  offset="0.5824" style="stop-color:#FFFFFF;stop-opacity:0.17"/>
			</linearGradient>
			<polygon class="st11" points="591.3,934.6 591.3,466.2 501.5,414.7 501.5,883.1 			"/>
			
				<linearGradient id="SVGID_00000114070363161570496860000000925086868084382878_" gradientUnits="userSpaceOnUse" x1="546.4117" y1="964.4588" x2="546.4117" y2="1016.4277">
				<stop  offset="6.355514e-02" style="stop-color:#FFFFFF"/>
				<stop  offset="0.5824" style="stop-color:#FFFFFF;stop-opacity:0"/>
			</linearGradient>
			<polygon style="fill:url(#SVGID_00000114070363161570496860000000925086868084382878_);" points="501.5,964.5 501.5,964.9 
				591.3,1016.4 591.3,1016 			"/>
		</g>
		<polygon class="st6" points="1065.8,739.7 747.1,924.3 744.8,1027.3 1154,786.4 		"/>
		<g>
			<polygon class="st13" points="1155.5,787.1 775.8,692.9 742.7,786.8 1034.6,856.2 			"/>
		</g>
		<polygon class="st14" points="1067.8,270.3 657.1,506 746.8,557.5 1157.6,321.8 		"/>
		<polygon class="st15" points="747,1026.7 747,557.8 657.3,506.3 657.3,975.2 		"/>
		
			<linearGradient id="SVGID_00000051366434477679156830000007957553885396156038_" gradientUnits="userSpaceOnUse" x1="439.2048" y1="413.922" x2="1098.9519" y2="413.922">
			<stop  offset="6.355514e-02" style="stop-color:#FFFFFF"/>
			<stop  offset="0.2933" style="stop-color:#FFFFFF;stop-opacity:0.9022"/>
			<stop  offset="0.7332" style="stop-color:#FFFFFF;stop-opacity:0"/>
		</linearGradient>
		<polygon style="fill:url(#SVGID_00000051366434477679156830000007957553885396156038_);" points="1068.4,270.3 657.6,506.1 
			747.3,557.6 1158.1,321.8 		"/>
		
			<linearGradient id="SVGID_00000056429754668852514160000000988867251086353590_" gradientUnits="userSpaceOnUse" x1="283.2131" y1="321.1971" x2="942.9602" y2="321.1971">
			<stop  offset="6.355514e-02" style="stop-color:#FFFFFF"/>
			<stop  offset="0.2933" style="stop-color:#FFFFFF;stop-opacity:0.9022"/>
			<stop  offset="1" style="stop-color:#FFFFFF;stop-opacity:0"/>
		</linearGradient>
		<polygon style="fill:url(#SVGID_00000056429754668852514160000000988867251086353590_);" points="914.8,177.6 501.6,413.3 
			591.3,464.8 1002.2,229.1 		"/>
		<polygon class="st9" points="591.3,938.6 591.3,466.2 501.5,414.7 501.5,887.1 		"/>
		
			<linearGradient id="SVGID_00000178911975392067905880000013759097269508410782_" gradientUnits="userSpaceOnUse" x1="747.1342" y1="685.9849" x2="747.1342" y2="685.9849">
			<stop  offset="1.553748e-02" style="stop-color:#FFFFFF"/>
			<stop  offset="0.5451" style="stop-color:#FFFFFF;stop-opacity:0"/>
		</linearGradient>
		<path style="fill:url(#SVGID_00000178911975392067905880000013759097269508410782_);" d="M747.1,686"/>
		<polygon class="st15" points="746.2,666.7 746.2,792.8 1154.7,558.4 1154.7,439.3 		"/>
	</g>
</g>
</svg>
