<?xml version="1.0" encoding="utf-8"?>
<!-- Generator: Adobe Illustrator 26.3.1, SVG Export Plug-In . SVG Version: 6.00 Build 0)  -->
<svg version="1.1" id="图层_1" xmlns="http://www.w3.org/2000/svg" xmlns:xlink="http://www.w3.org/1999/xlink" x="0px" y="0px"
	 viewBox="0 0 4280 1500" style="enable-background:new 0 0 4280 1500;" xml:space="preserve">
<style type="text/css">
	.st0{opacity:0.9771;}
	.st1{fill:#FFFFFF;}
	.st2{opacity:0.5;fill:#676767;}
	.st3{opacity:0.5;fill:#6B6B6B;}
	.st4{opacity:0.5;}
	.st5{fill:#6B6B6B;}
	.st6{opacity:0.8;fill:#676767;}
	.st7{fill:#F5F5F5;}
	.st8{fill:#F6F6F6;}
	.st9{fill:#DDDDDD;}
	.st10{opacity:0.49;}
	.st11{fill:url(#SVGID_1_);}
	.st12{fill:url(#SVGID_00000026847898352831010780000006282576164104684437_);}
	.st13{fill:#9E9E9E;}
	.st14{fill:#E9E9E9;}
	.st15{opacity:0.9891;fill:#A6A6A6;}
	.st16{fill:url(#SVGID_00000064328489297560349500000003779285427713284770_);}
	.st17{fill:url(#SVGID_00000034776463232223765540000002672225018580923306_);}
	.st18{fill:url(#SVGID_00000092452254322741530320000003141928627508049314_);}
</style>
<g>
	<g>
		<g class="st0">
			<g>
				<polygon class="st1" points="10,455.4 10,1055.8 527.4,1355.9 1049.8,1053.2 1049.8,455.4 529.9,155.3 				"/>
			</g>
		</g>
		<polygon class="st2" points="969.2,1008.2 969.2,499.2 871.9,445.6 871.9,957.2 		"/>
		<polygon class="st3" points="800.2,914.7 800.2,404.5 705.5,348.3 690.1,853.4 		"/>
		<g class="st4">
			<g>
				<polygon class="st5" points="633.8,818.2 633.8,307.2 536.5,253.6 536.5,764.6 				"/>
			</g>
		</g>
		<polygon class="st6" points="536.4,764.7 188.3,965.7 188.3,1075.5 632,817.8 		"/>
		<polygon class="st6" points="696,854 357.3,1060.4 357.3,1172.8 801,912.5 		"/>
		<g>
			<g>
				<polygon class="st7" points="704.6,346.5 259.5,602 356.8,658.2 799.4,402.7 				"/>
			</g>
		</g>
		<polygon class="st8" points="536.5,249.4 91,506.6 188.3,562.8 633.8,305.6 		"/>
		<g>
			<polygon class="st9" points="188.3,1074.3 188.3,563.3 91,507.1 91,1018.1 			"/>
		</g>
		<g class="st10">
			<linearGradient id="SVGID_1_" gradientUnits="userSpaceOnUse" x1="308.611" y1="601.8259" x2="308.611" y2="1169.0081">
				<stop  offset="6.355514e-02" style="stop-color:#FFFFFF"/>
				<stop  offset="0.5824" style="stop-color:#FFFFFF;stop-opacity:0.17"/>
			</linearGradient>
			<polygon class="st11" points="357.3,1169 357.3,658 260,601.8 260,1112.8 			"/>
			
				<linearGradient id="SVGID_00000165942539599278560620000000235120039664849047_" gradientUnits="userSpaceOnUse" x1="308.611" y1="1201.5319" x2="308.611" y2="1258.224">
				<stop  offset="6.355514e-02" style="stop-color:#FFFFFF"/>
				<stop  offset="0.5824" style="stop-color:#FFFFFF;stop-opacity:0"/>
			</linearGradient>
			<polygon style="fill:url(#SVGID_00000165942539599278560620000000235120039664849047_);" points="260,1201.5 260,1202 
				357.3,1258.2 357.3,1257.7 			"/>
		</g>
		<polygon class="st6" points="871.8,956.3 526.3,1157.7 523.7,1270.1 967.4,1007.3 		"/>
		<g>
			<polygon class="st13" points="969.1,1008 557.3,905.3 521.5,1007.7 837.9,1083.5 			"/>
		</g>
		<polygon class="st14" points="874,444.3 428.6,701.5 525.9,757.6 971.3,500.5 		"/>
		<polygon class="st15" points="526.1,1269.4 526.1,757.9 428.8,701.7 428.8,1213.2 		"/>
		
			<linearGradient id="SVGID_00000110449949502521107090000018144318349170204581_" gradientUnits="userSpaceOnUse" x1="192.3628" y1="600.9586" x2="907.7496" y2="600.9586">
			<stop  offset="6.355514e-02" style="stop-color:#FFFFFF"/>
			<stop  offset="0.2933" style="stop-color:#FFFFFF;stop-opacity:0.9022"/>
			<stop  offset="0.7332" style="stop-color:#FFFFFF;stop-opacity:0"/>
		</linearGradient>
		<polygon style="fill:url(#SVGID_00000110449949502521107090000018144318349170204581_);" points="874.6,444.3 429.1,701.5 
			526.4,757.7 971.9,500.4 		"/>
		
			<linearGradient id="SVGID_00000033360296607996715470000002141565272729921703_" gradientUnits="userSpaceOnUse" x1="23.2155" y1="499.8061" x2="738.6024" y2="499.8061">
			<stop  offset="6.355514e-02" style="stop-color:#FFFFFF"/>
			<stop  offset="0.2933" style="stop-color:#FFFFFF;stop-opacity:0.9022"/>
			<stop  offset="1" style="stop-color:#FFFFFF;stop-opacity:0"/>
		</linearGradient>
		<polygon style="fill:url(#SVGID_00000033360296607996715470000002141565272729921703_);" points="708,343.1 260,600.3 
			357.3,656.5 802.8,399.3 		"/>
		<polygon class="st9" points="357.3,1173.3 357.3,658 260,601.8 260,1117.1 		"/>
		
			<linearGradient id="SVGID_00000003795398130708434770000006788125769039457979_" gradientUnits="userSpaceOnUse" x1="526.2614" y1="897.7483" x2="526.2614" y2="897.7483">
			<stop  offset="1.553748e-02" style="stop-color:#FFFFFF"/>
			<stop  offset="0.5451" style="stop-color:#FFFFFF;stop-opacity:0"/>
		</linearGradient>
		<path style="fill:url(#SVGID_00000003795398130708434770000006788125769039457979_);" d="M526.3,897.7"/>
		<polygon class="st15" points="525.2,876.7 525.2,1014.3 968.2,758.6 968.2,628.7 		"/>
	</g>
	<g>
		<g>
			<polygon class="st1" points="3093.1,708.5 2774.6,708.5 2774.6,473 2666.4,473 2666.4,1048 2774.6,1048 2774.6,797 3093.1,797 
							"/>
			<rect x="1353.1" y="473.7" class="st1" width="108.4" height="575"/>
			<polygon class="st1" points="1863.4,474.4 1726.3,474.4 1480.2,734.9 1480.2,869.8 1561.8,786.5 1741.8,1048 1880.3,1048 
				1630,714.8 			"/>
			<rect x="3776.5" y="473.7" class="st1" width="108.7" height="575"/>
			<polygon class="st1" points="4161,473.7 4161,709.9 3904,709.9 3904,803.4 4161,803.4 4161,1048.7 4270,1048.7 4270,473.7 			"/>
			<rect x="2793.3" y="473" class="st1" width="314.7" height="89.3"/>
			<rect x="2793.3" y="958.7" class="st1" width="315.9" height="89.3"/>
			<path class="st1" d="M3551.6,645.9l107.5-21.8c-12.2-53.4-36.3-93-72.4-118.8c-34.7-24.8-82.5-38.3-143.3-40.4v87.2
				c30.3,1.7,54.5,10,72.3,24.9C3534.9,592.9,3546.9,615.9,3551.6,645.9L3551.6,645.9z"/>
			<path class="st1" d="M1980.3,580.3v468.4h98.4V699.3c0-51.1-0.6-90.8-1.8-119H1980.3L1980.3,580.3z"/>
			<path class="st1" d="M2287.5,868c-7.5,35.2-11.5,55.5-12,61.1h-1.4c0-6.1-3.5-26.7-10.5-61.9c-39.8-131.2-79.9-262.4-120.2-393.6
				h-163.1v87.9h99.1c3.3,17.8,12.6,51.5,28.1,101.2c40.8,128.4,81.5,256.8,122.3,385.2h94.9c72.6-239.9,111.8-370.2,117.4-390.8
				c6.7-25.6,13.2-51.2,19.6-76.8H2371C2317.3,764.9,2289.5,860.9,2287.5,868z"/>
			<path class="st1" d="M2376.5,561.6l92.3-0.2c-1.4,42.2-2.8,83.9-4.2,126.1v361.3h106.9v-575h-169.4
				C2393,504.8,2384.5,534.1,2376.5,561.6L2376.5,561.6z"/>
			<path class="st1" d="M3305.6,844.1L3198,867.3c14.1,65.6,41.2,113.9,81.6,144.8c35.4,27.3,83.8,42.7,145.1,46.3v-87.3
				C3356.6,964.4,3316.9,922.1,3305.6,844.1L3305.6,844.1z"/>
			<path class="st1" d="M3557.9,735.2c-38.9-15.9-75.2-27.4-109-34.4c-45-10.3-75.7-21.3-92.1-33c-15.9-11.7-23.9-27.7-23.9-47.8
				c0-18.3,8.2-33.7,24.6-46.4c16.9-13.4,39.3-20.6,67.1-21.6v-87.3c-61.8,0.2-112.1,15.4-150.7,45.7c-37,29.1-55.5,65.4-55.5,109
				c0,43.6,12,76.9,35.8,101.2c24.8,25.3,67.7,45.2,128.6,59.7c26.7,6.1,56.5,14.5,89.3,25.3c32.8,11.2,55.8,23.9,68.9,37.9
				c11.7,12.2,17.6,27.9,17.6,47.1c0,23.4-8.9,42.4-26.7,56.9c-19.7,16.4-47.1,24.6-82.2,24.6c-2.2,0.1-4.2-0.1-6.3-0.1v87.1
				c3.3,0.1,6.5,0.1,9.8,0.1c70.7,0,125.8-16.2,165.2-48.5c37.5-30.9,56.2-72.4,56.2-124.4C3674.6,818.4,3635.7,768,3557.9,735.2
				L3557.9,735.2z"/>
		</g>
	</g>
</g>
</svg>
