<?xml version="1.0" encoding="utf-8"?>
<!-- Generator: Adobe Illustrator 26.3.1, SVG Export Plug-In . SVG Version: 6.00 Build 0)  -->
<svg version="1.1" id="图层_1" xmlns="http://www.w3.org/2000/svg" xmlns:xlink="http://www.w3.org/1999/xlink" x="0px" y="0px"
	 viewBox="0 0 1486 1500" style="enable-background:new 0 0 1486 1500;" xml:space="preserve">
<style type="text/css">
	.st0{opacity:0.9771;}
	.st1{fill:#FFFFFF;}
	.st2{opacity:0.5;fill:#676767;}
	.st3{opacity:0.5;fill:#6B6B6B;}
	.st4{opacity:0.5;}
	.st5{fill:#6B6B6B;}
	.st6{opacity:0.8;fill:#676767;}
	.st7{fill:#F5F5F5;}
	.st8{fill:#F6F6F6;}
	.st9{fill:#DDDDDD;}
	.st10{opacity:0.49;}
	.st11{fill:url(#SVGID_1_);}
	.st12{fill:url(#SVGID_00000103252363959737068080000009955952820461361563_);}
	.st13{fill:#9E9E9E;}
	.st14{fill:#E9E9E9;}
	.st15{opacity:0.9891;fill:#A6A6A6;}
	.st16{fill:url(#SVGID_00000036963888412328315120000009146251696120293771_);}
	.st17{fill:url(#SVGID_00000145028287099530244890000015821545536202924205_);}
	.st18{fill:url(#SVGID_00000062154869253684339980000017186959160123497899_);}
</style>
<g>
	<g class="st0">
		<g>
			<polygon class="st1" points="104.5,378.3 104.5,1118.2 742.1,1488.1 1386,1115 1386,378.3 745.3,8.4 			"/>
		</g>
	</g>
	<polygon class="st2" points="1286.7,1059.6 1286.7,432.3 1166.8,366.2 1166.8,996.7 	"/>
	<polygon class="st3" points="1078.4,944.3 1078.4,315.6 961.7,246.3 942.7,868.8 	"/>
	<g class="st4">
		<g>
			<polygon class="st5" points="873.3,825.4 873.3,195.6 753.4,129.6 753.4,759.3 			"/>
		</g>
	</g>
	<polygon class="st6" points="753.2,759.5 324.2,1007.1 324.2,1142.4 871.1,824.9 	"/>
	<polygon class="st6" points="950,869.5 532.5,1123.9 532.5,1262.3 1079.3,941.7 	"/>
	<g>
		<g>
			<polygon class="st7" points="960.6,244.1 412,559 531.9,628.2 1077.4,313.3 			"/>
		</g>
	</g>
	<polygon class="st8" points="753.4,124.4 204.3,441.4 324.2,510.6 873.3,193.7 	"/>
	<g>
		<polygon class="st9" points="324.2,1141 324.2,511.2 204.3,442 204.3,1071.7 		"/>
	</g>
	<g class="st10">
		<linearGradient id="SVGID_1_" gradientUnits="userSpaceOnUse" x1="472.5509" y1="558.7311" x2="472.5509" y2="1257.7257">
			<stop  offset="6.355514e-02" style="stop-color:#FFFFFF"/>
			<stop  offset="0.5824" style="stop-color:#FFFFFF;stop-opacity:0.17"/>
		</linearGradient>
		<polygon class="st11" points="532.5,1257.7 532.5,628 412.6,558.7 412.6,1188.5 		"/>
		
			<linearGradient id="SVGID_00000106109384066561013650000001647575212682573724_" gradientUnits="userSpaceOnUse" x1="472.5509" y1="1297.808" x2="472.5509" y2="1367.6753">
			<stop  offset="6.355514e-02" style="stop-color:#FFFFFF"/>
			<stop  offset="0.5824" style="stop-color:#FFFFFF;stop-opacity:0"/>
		</linearGradient>
		<polygon style="fill:url(#SVGID_00000106109384066561013650000001647575212682573724_);" points="412.6,1297.8 412.6,1298.4 
			532.5,1367.7 532.5,1367 		"/>
	</g>
	<polygon class="st6" points="1166.6,995.6 740.8,1243.8 737.6,1382.3 1284.5,1058.4 	"/>
	<g>
		<polygon class="st13" points="1286.5,1059.3 779.1,932.7 734.9,1058.9 1124.9,1152.3 		"/>
	</g>
	<polygon class="st14" points="1169.3,364.6 620.4,681.5 740.3,750.7 1289.3,433.8 	"/>
	<polygon class="st15" points="740.6,1381.5 740.6,751 620.7,681.8 620.7,1312.2 	"/>
	
		<linearGradient id="SVGID_00000140694410290286543780000013412458872143063438_" gradientUnits="userSpaceOnUse" x1="329.2868" y1="557.6623" x2="1210.9285" y2="557.6623">
		<stop  offset="6.355514e-02" style="stop-color:#FFFFFF"/>
		<stop  offset="0.2933" style="stop-color:#FFFFFF;stop-opacity:0.9022"/>
		<stop  offset="0.7332" style="stop-color:#FFFFFF;stop-opacity:0"/>
	</linearGradient>
	<polygon style="fill:url(#SVGID_00000140694410290286543780000013412458872143063438_);" points="1170.1,364.5 621.1,681.5 
		741,750.8 1290,433.8 	"/>
	
		<linearGradient id="SVGID_00000017515626888681919500000011139536140974079413_" gradientUnits="userSpaceOnUse" x1="120.8299" y1="433.0021" x2="1002.4717" y2="433.0021">
		<stop  offset="6.355514e-02" style="stop-color:#FFFFFF"/>
		<stop  offset="0.2933" style="stop-color:#FFFFFF;stop-opacity:0.9022"/>
		<stop  offset="1" style="stop-color:#FFFFFF;stop-opacity:0"/>
	</linearGradient>
	<polygon style="fill:url(#SVGID_00000017515626888681919500000011139536140974079413_);" points="964.8,239.9 412.6,556.9 
		532.5,626.1 1081.6,309.1 	"/>
	<polygon class="st9" points="532.5,1263 532.5,628 412.6,558.7 412.6,1193.8 	"/>
	
		<linearGradient id="SVGID_00000061449471600535390250000013551258785256620211_" gradientUnits="userSpaceOnUse" x1="740.7829" y1="923.4255" x2="740.7829" y2="923.4255">
		<stop  offset="1.553748e-02" style="stop-color:#FFFFFF"/>
		<stop  offset="0.5451" style="stop-color:#FFFFFF;stop-opacity:0"/>
	</linearGradient>
	<path style="fill:url(#SVGID_00000061449471600535390250000013551258785256620211_);" d="M740.8,923.4"/>
	<polygon class="st15" points="739.5,897.5 739.5,1067.1 1285.4,751.9 1285.4,591.8 	"/>
</g>
</svg>
